<mxfile host="app.diagrams.net" modified="2023-06-08T11:45:22.947Z" agent="Mozilla/5.0 (Windows NT 10.0; Win64; x64) AppleWebKit/537.36 (KHTML, like Gecko) Chrome/114.0.0.0 Safari/537.36" etag="rrqKTGb96ock4iqfKYk7" version="21.3.2" type="github">
  <diagram id="C5RBs43oDa-KdzZeNtuy" name="Page-1">
    <mxGraphModel dx="1050" dy="581" grid="1" gridSize="10" guides="1" tooltips="1" connect="1" arrows="1" fold="1" page="1" pageScale="1" pageWidth="827" pageHeight="1169" math="0" shadow="0">
      <root>
        <mxCell id="WIyWlLk6GJQsqaUBKTNV-0" />
        <mxCell id="WIyWlLk6GJQsqaUBKTNV-1" parent="WIyWlLk6GJQsqaUBKTNV-0" />
        <mxCell id="cDAYfYiGvi2COIqTTSTw-47" style="edgeStyle=orthogonalEdgeStyle;rounded=0;orthogonalLoop=1;jettySize=auto;html=1;entryX=0.5;entryY=0;entryDx=0;entryDy=0;" parent="WIyWlLk6GJQsqaUBKTNV-1" source="cDAYfYiGvi2COIqTTSTw-45" target="cDAYfYiGvi2COIqTTSTw-46" edge="1">
          <mxGeometry relative="1" as="geometry" />
        </mxCell>
        <mxCell id="cDAYfYiGvi2COIqTTSTw-45" value="התחלה&amp;nbsp;" style="ellipse;whiteSpace=wrap;html=1;fillColor=#008a00;fontColor=#ffffff;strokeColor=#005700;" parent="WIyWlLk6GJQsqaUBKTNV-1" vertex="1">
          <mxGeometry x="240" y="20" width="220" height="80" as="geometry" />
        </mxCell>
        <mxCell id="cDAYfYiGvi2COIqTTSTw-51" style="edgeStyle=orthogonalEdgeStyle;rounded=0;orthogonalLoop=1;jettySize=auto;html=1;exitX=0.5;exitY=1;exitDx=0;exitDy=0;entryX=0.5;entryY=0;entryDx=0;entryDy=0;entryPerimeter=0;" parent="WIyWlLk6GJQsqaUBKTNV-1" source="cDAYfYiGvi2COIqTTSTw-46" target="cDAYfYiGvi2COIqTTSTw-48" edge="1">
          <mxGeometry relative="1" as="geometry" />
        </mxCell>
        <mxCell id="cDAYfYiGvi2COIqTTSTw-46" value="הגדר את לוח המשחק" style="rounded=1;whiteSpace=wrap;html=1;absoluteArcSize=1;arcSize=14;strokeWidth=2;" parent="WIyWlLk6GJQsqaUBKTNV-1" vertex="1">
          <mxGeometry x="300" y="140" width="100" height="100" as="geometry" />
        </mxCell>
        <mxCell id="cDAYfYiGvi2COIqTTSTw-150" style="edgeStyle=orthogonalEdgeStyle;rounded=0;orthogonalLoop=1;jettySize=auto;html=1;exitX=0.5;exitY=1;exitDx=0;exitDy=0;exitPerimeter=0;" parent="WIyWlLk6GJQsqaUBKTNV-1" source="cDAYfYiGvi2COIqTTSTw-48" edge="1">
          <mxGeometry relative="1" as="geometry">
            <mxPoint x="540" y="350" as="targetPoint" />
          </mxGeometry>
        </mxCell>
        <mxCell id="cDAYfYiGvi2COIqTTSTw-48" value="זה התור של שחקן 1?" style="strokeWidth=2;html=1;shape=mxgraph.flowchart.decision;whiteSpace=wrap;" parent="WIyWlLk6GJQsqaUBKTNV-1" vertex="1">
          <mxGeometry x="287" y="287" width="126" height="73" as="geometry" />
        </mxCell>
        <mxCell id="cDAYfYiGvi2COIqTTSTw-75" value="כן" style="edgeStyle=orthogonalEdgeStyle;rounded=0;orthogonalLoop=1;jettySize=auto;html=1;exitX=0.5;exitY=1;exitDx=0;exitDy=0;exitPerimeter=0;" parent="WIyWlLk6GJQsqaUBKTNV-1" source="QLwqlWArIf-RWkTs_ufm-1" edge="1">
          <mxGeometry relative="1" as="geometry">
            <mxPoint x="420" y="600" as="targetPoint" />
            <mxPoint x="360" y="520" as="sourcePoint" />
          </mxGeometry>
        </mxCell>
        <mxCell id="cDAYfYiGvi2COIqTTSTw-76" value="לא" style="edgeStyle=orthogonalEdgeStyle;rounded=0;orthogonalLoop=1;jettySize=auto;html=1;exitX=0.5;exitY=1;exitDx=0;exitDy=0;exitPerimeter=0;" parent="WIyWlLk6GJQsqaUBKTNV-1" source="QLwqlWArIf-RWkTs_ufm-1" edge="1">
          <mxGeometry relative="1" as="geometry">
            <mxPoint x="290" y="600" as="targetPoint" />
            <mxPoint x="360" y="520" as="sourcePoint" />
          </mxGeometry>
        </mxCell>
        <mxCell id="cDAYfYiGvi2COIqTTSTw-85" value="" style="edgeStyle=orthogonalEdgeStyle;rounded=0;orthogonalLoop=1;jettySize=auto;html=1;" parent="WIyWlLk6GJQsqaUBKTNV-1" target="cDAYfYiGvi2COIqTTSTw-84" edge="1">
          <mxGeometry relative="1" as="geometry">
            <mxPoint x="290" y="660" as="sourcePoint" />
          </mxGeometry>
        </mxCell>
        <mxCell id="cDAYfYiGvi2COIqTTSTw-83" value="" style="edgeStyle=orthogonalEdgeStyle;rounded=0;orthogonalLoop=1;jettySize=auto;html=1;" parent="WIyWlLk6GJQsqaUBKTNV-1" target="cDAYfYiGvi2COIqTTSTw-82" edge="1">
          <mxGeometry relative="1" as="geometry">
            <mxPoint x="430" y="660" as="sourcePoint" />
          </mxGeometry>
        </mxCell>
        <mxCell id="cDAYfYiGvi2COIqTTSTw-87" style="edgeStyle=orthogonalEdgeStyle;rounded=0;orthogonalLoop=1;jettySize=auto;html=1;exitX=0.25;exitY=1;exitDx=0;exitDy=0;entryX=0.5;entryY=0;entryDx=0;entryDy=0;" parent="WIyWlLk6GJQsqaUBKTNV-1" source="cDAYfYiGvi2COIqTTSTw-82" target="cDAYfYiGvi2COIqTTSTw-88" edge="1">
          <mxGeometry relative="1" as="geometry">
            <mxPoint x="360" y="850" as="targetPoint" />
          </mxGeometry>
        </mxCell>
        <mxCell id="cDAYfYiGvi2COIqTTSTw-82" value="בצע אכילה&amp;nbsp;" style="whiteSpace=wrap;html=1;strokeWidth=2;" parent="WIyWlLk6GJQsqaUBKTNV-1" vertex="1">
          <mxGeometry x="360" y="600" width="120" height="60" as="geometry" />
        </mxCell>
        <mxCell id="cDAYfYiGvi2COIqTTSTw-84" value="בצע מהלך רגיל&amp;nbsp;" style="whiteSpace=wrap;html=1;strokeWidth=2;" parent="WIyWlLk6GJQsqaUBKTNV-1" vertex="1">
          <mxGeometry x="230" y="600" width="120" height="60" as="geometry" />
        </mxCell>
        <mxCell id="cDAYfYiGvi2COIqTTSTw-90" value="כן" style="edgeStyle=orthogonalEdgeStyle;rounded=0;orthogonalLoop=1;jettySize=auto;html=1;exitX=0.75;exitY=1;exitDx=0;exitDy=0;entryX=0.5;entryY=0;entryDx=0;entryDy=0;" parent="WIyWlLk6GJQsqaUBKTNV-1" source="cDAYfYiGvi2COIqTTSTw-88" target="cDAYfYiGvi2COIqTTSTw-98" edge="1">
          <mxGeometry relative="1" as="geometry">
            <mxPoint x="460" y="970" as="targetPoint" />
          </mxGeometry>
        </mxCell>
        <mxCell id="cDAYfYiGvi2COIqTTSTw-91" value="לא" style="edgeStyle=orthogonalEdgeStyle;rounded=0;orthogonalLoop=1;jettySize=auto;html=1;exitX=0.25;exitY=1;exitDx=0;exitDy=0;entryX=0.5;entryY=0;entryDx=0;entryDy=0;" parent="WIyWlLk6GJQsqaUBKTNV-1" source="cDAYfYiGvi2COIqTTSTw-88" target="cDAYfYiGvi2COIqTTSTw-96" edge="1">
          <mxGeometry relative="1" as="geometry">
            <mxPoint x="300" y="970" as="targetPoint" />
          </mxGeometry>
        </mxCell>
        <mxCell id="cDAYfYiGvi2COIqTTSTw-101" value="" style="edgeStyle=orthogonalEdgeStyle;rounded=0;orthogonalLoop=1;jettySize=auto;html=1;" parent="WIyWlLk6GJQsqaUBKTNV-1" source="cDAYfYiGvi2COIqTTSTw-96" target="cDAYfYiGvi2COIqTTSTw-100" edge="1">
          <mxGeometry relative="1" as="geometry" />
        </mxCell>
        <mxCell id="cDAYfYiGvi2COIqTTSTw-96" value="תורו של שחקן 2" style="rounded=1;whiteSpace=wrap;html=1;strokeWidth=2;" parent="WIyWlLk6GJQsqaUBKTNV-1" vertex="1">
          <mxGeometry x="260" y="840" width="120" height="60" as="geometry" />
        </mxCell>
        <mxCell id="cDAYfYiGvi2COIqTTSTw-148" value="" style="edgeStyle=orthogonalEdgeStyle;rounded=0;orthogonalLoop=1;jettySize=auto;html=1;" parent="WIyWlLk6GJQsqaUBKTNV-1" source="cDAYfYiGvi2COIqTTSTw-98" target="cDAYfYiGvi2COIqTTSTw-147" edge="1">
          <mxGeometry relative="1" as="geometry" />
        </mxCell>
        <mxCell id="cDAYfYiGvi2COIqTTSTw-98" value="הדפס הודעת ניצחון לשחקן 1" style="whiteSpace=wrap;html=1;strokeWidth=2;" parent="WIyWlLk6GJQsqaUBKTNV-1" vertex="1">
          <mxGeometry x="420" y="840" width="120" height="60" as="geometry" />
        </mxCell>
        <mxCell id="cDAYfYiGvi2COIqTTSTw-103" value="" style="edgeStyle=orthogonalEdgeStyle;rounded=0;orthogonalLoop=1;jettySize=auto;html=1;" parent="WIyWlLk6GJQsqaUBKTNV-1" source="cDAYfYiGvi2COIqTTSTw-100" target="cDAYfYiGvi2COIqTTSTw-102" edge="1">
          <mxGeometry relative="1" as="geometry" />
        </mxCell>
        <mxCell id="cDAYfYiGvi2COIqTTSTw-100" value="בחר כלי להמשך" style="whiteSpace=wrap;html=1;rounded=1;strokeWidth=2;" parent="WIyWlLk6GJQsqaUBKTNV-1" vertex="1">
          <mxGeometry x="210" y="1000" width="120" height="60" as="geometry" />
        </mxCell>
        <mxCell id="cDAYfYiGvi2COIqTTSTw-104" value="כן" style="edgeStyle=orthogonalEdgeStyle;rounded=0;orthogonalLoop=1;jettySize=auto;html=1;exitX=0.75;exitY=1;exitDx=0;exitDy=0;entryX=0.5;entryY=0;entryDx=0;entryDy=0;" parent="WIyWlLk6GJQsqaUBKTNV-1" source="cDAYfYiGvi2COIqTTSTw-102" target="cDAYfYiGvi2COIqTTSTw-112" edge="1">
          <mxGeometry relative="1" as="geometry">
            <mxPoint x="630" y="1500" as="targetPoint" />
            <Array as="points">
              <mxPoint x="300" y="1180" />
              <mxPoint x="360" y="1180" />
            </Array>
          </mxGeometry>
        </mxCell>
        <mxCell id="cDAYfYiGvi2COIqTTSTw-105" value="לא" style="edgeStyle=orthogonalEdgeStyle;rounded=0;orthogonalLoop=1;jettySize=auto;html=1;exitX=0.25;exitY=1;exitDx=0;exitDy=0;entryX=0.5;entryY=0;entryDx=0;entryDy=0;" parent="WIyWlLk6GJQsqaUBKTNV-1" source="cDAYfYiGvi2COIqTTSTw-102" target="cDAYfYiGvi2COIqTTSTw-110" edge="1">
          <mxGeometry relative="1" as="geometry">
            <mxPoint x="330" y="1550" as="targetPoint" />
            <Array as="points">
              <mxPoint x="240" y="1180" />
              <mxPoint x="190" y="1180" />
            </Array>
          </mxGeometry>
        </mxCell>
        <mxCell id="cDAYfYiGvi2COIqTTSTw-102" value="הכלי יכול לזוז או לתקוף ?" style="whiteSpace=wrap;html=1;rounded=1;strokeWidth=2;" parent="WIyWlLk6GJQsqaUBKTNV-1" vertex="1">
          <mxGeometry x="210" y="1080" width="120" height="60" as="geometry" />
        </mxCell>
        <mxCell id="cDAYfYiGvi2COIqTTSTw-164" style="edgeStyle=orthogonalEdgeStyle;rounded=0;orthogonalLoop=1;jettySize=auto;html=1;exitX=0;exitY=0.5;exitDx=0;exitDy=0;entryX=0;entryY=0.5;entryDx=0;entryDy=0;" parent="WIyWlLk6GJQsqaUBKTNV-1" source="cDAYfYiGvi2COIqTTSTw-110" target="cDAYfYiGvi2COIqTTSTw-102" edge="1">
          <mxGeometry relative="1" as="geometry" />
        </mxCell>
        <mxCell id="cDAYfYiGvi2COIqTTSTw-110" value="בחר שחקן אחר" style="whiteSpace=wrap;html=1;rounded=1;strokeWidth=2;" parent="WIyWlLk6GJQsqaUBKTNV-1" vertex="1">
          <mxGeometry x="130" y="1270" width="120" height="60" as="geometry" />
        </mxCell>
        <mxCell id="cDAYfYiGvi2COIqTTSTw-116" value="" style="edgeStyle=orthogonalEdgeStyle;rounded=0;orthogonalLoop=1;jettySize=auto;html=1;entryX=0.5;entryY=0;entryDx=0;entryDy=0;entryPerimeter=0;" parent="WIyWlLk6GJQsqaUBKTNV-1" source="cDAYfYiGvi2COIqTTSTw-112" target="QLwqlWArIf-RWkTs_ufm-4" edge="1">
          <mxGeometry relative="1" as="geometry" />
        </mxCell>
        <mxCell id="cDAYfYiGvi2COIqTTSTw-112" value="המשך" style="whiteSpace=wrap;html=1;rounded=1;strokeWidth=2;" parent="WIyWlLk6GJQsqaUBKTNV-1" vertex="1">
          <mxGeometry x="300" y="1270" width="120" height="60" as="geometry" />
        </mxCell>
        <mxCell id="cDAYfYiGvi2COIqTTSTw-118" value="אכילה" style="edgeStyle=orthogonalEdgeStyle;rounded=0;orthogonalLoop=1;jettySize=auto;html=1;exitX=0.5;exitY=1;exitDx=0;exitDy=0;entryX=0.5;entryY=0;entryDx=0;entryDy=0;exitPerimeter=0;" parent="WIyWlLk6GJQsqaUBKTNV-1" source="QLwqlWArIf-RWkTs_ufm-4" target="cDAYfYiGvi2COIqTTSTw-125" edge="1">
          <mxGeometry relative="1" as="geometry">
            <mxPoint x="380" y="1920" as="targetPoint" />
          </mxGeometry>
        </mxCell>
        <mxCell id="cDAYfYiGvi2COIqTTSTw-121" value="רגיל" style="edgeStyle=orthogonalEdgeStyle;rounded=0;orthogonalLoop=1;jettySize=auto;html=1;exitX=0.5;exitY=1;exitDx=0;exitDy=0;entryX=0.5;entryY=0;entryDx=0;entryDy=0;exitPerimeter=0;" parent="WIyWlLk6GJQsqaUBKTNV-1" source="QLwqlWArIf-RWkTs_ufm-4" target="cDAYfYiGvi2COIqTTSTw-127" edge="1">
          <mxGeometry relative="1" as="geometry">
            <mxPoint x="550" y="1520" as="targetPoint" />
          </mxGeometry>
        </mxCell>
        <mxCell id="cDAYfYiGvi2COIqTTSTw-130" style="edgeStyle=orthogonalEdgeStyle;rounded=0;orthogonalLoop=1;jettySize=auto;html=1;exitX=0.5;exitY=1;exitDx=0;exitDy=0;entryX=0.5;entryY=0;entryDx=0;entryDy=0;" parent="WIyWlLk6GJQsqaUBKTNV-1" source="cDAYfYiGvi2COIqTTSTw-125" target="cDAYfYiGvi2COIqTTSTw-131" edge="1">
          <mxGeometry relative="1" as="geometry">
            <mxPoint x="470" y="2230" as="targetPoint" />
          </mxGeometry>
        </mxCell>
        <mxCell id="cDAYfYiGvi2COIqTTSTw-125" value="תאכל את השחקן היריב&amp;nbsp;" style="whiteSpace=wrap;html=1;rounded=1;strokeWidth=2;" parent="WIyWlLk6GJQsqaUBKTNV-1" vertex="1">
          <mxGeometry x="294" y="1520" width="120" height="60" as="geometry" />
        </mxCell>
        <mxCell id="cDAYfYiGvi2COIqTTSTw-129" style="edgeStyle=orthogonalEdgeStyle;rounded=0;orthogonalLoop=1;jettySize=auto;html=1;exitX=0.5;exitY=1;exitDx=0;exitDy=0;entryX=0.5;entryY=0;entryDx=0;entryDy=0;" parent="WIyWlLk6GJQsqaUBKTNV-1" source="cDAYfYiGvi2COIqTTSTw-127" target="cDAYfYiGvi2COIqTTSTw-131" edge="1">
          <mxGeometry relative="1" as="geometry">
            <mxPoint x="470" y="2220" as="targetPoint" />
          </mxGeometry>
        </mxCell>
        <mxCell id="cDAYfYiGvi2COIqTTSTw-127" value="בצע מהלך רגיל&amp;nbsp;" style="whiteSpace=wrap;html=1;rounded=1;strokeWidth=2;" parent="WIyWlLk6GJQsqaUBKTNV-1" vertex="1">
          <mxGeometry x="450" y="1520" width="120" height="60" as="geometry" />
        </mxCell>
        <mxCell id="cDAYfYiGvi2COIqTTSTw-134" value="" style="edgeStyle=orthogonalEdgeStyle;rounded=0;orthogonalLoop=1;jettySize=auto;html=1;entryX=0.5;entryY=0;entryDx=0;entryDy=0;entryPerimeter=0;" parent="WIyWlLk6GJQsqaUBKTNV-1" source="cDAYfYiGvi2COIqTTSTw-131" target="QLwqlWArIf-RWkTs_ufm-2" edge="1">
          <mxGeometry relative="1" as="geometry">
            <mxPoint x="430" y="1780" as="targetPoint" />
          </mxGeometry>
        </mxCell>
        <mxCell id="cDAYfYiGvi2COIqTTSTw-131" value="המשך&amp;nbsp;" style="whiteSpace=wrap;html=1;rounded=1;strokeWidth=2;" parent="WIyWlLk6GJQsqaUBKTNV-1" vertex="1">
          <mxGeometry x="370" y="1650" width="120" height="60" as="geometry" />
        </mxCell>
        <mxCell id="cDAYfYiGvi2COIqTTSTw-142" value="לא" style="edgeStyle=orthogonalEdgeStyle;rounded=0;orthogonalLoop=1;jettySize=auto;html=1;exitX=0;exitY=0.5;exitDx=0;exitDy=0;entryX=0;entryY=0.5;entryDx=0;entryDy=0;entryPerimeter=0;fillColor=#6a00ff;strokeColor=#3700CC;strokeWidth=4;exitPerimeter=0;" parent="WIyWlLk6GJQsqaUBKTNV-1" source="QLwqlWArIf-RWkTs_ufm-2" target="cDAYfYiGvi2COIqTTSTw-48" edge="1">
          <mxGeometry x="-0.9717" relative="1" as="geometry">
            <mxPoint x="10" y="1180" as="targetPoint" />
            <mxPoint x="200" y="1895" as="sourcePoint" />
            <Array as="points">
              <mxPoint x="60" y="1795" />
              <mxPoint x="60" y="324" />
            </Array>
            <mxPoint x="1" as="offset" />
          </mxGeometry>
        </mxCell>
        <mxCell id="cDAYfYiGvi2COIqTTSTw-144" value="כן" style="edgeStyle=orthogonalEdgeStyle;rounded=0;orthogonalLoop=1;jettySize=auto;html=1;exitX=0.5;exitY=1;exitDx=0;exitDy=0;exitPerimeter=0;" parent="WIyWlLk6GJQsqaUBKTNV-1" source="QLwqlWArIf-RWkTs_ufm-2" target="cDAYfYiGvi2COIqTTSTw-143" edge="1">
          <mxGeometry relative="1" as="geometry">
            <mxPoint x="610" y="1970" as="sourcePoint" />
          </mxGeometry>
        </mxCell>
        <mxCell id="cDAYfYiGvi2COIqTTSTw-146" value="" style="edgeStyle=orthogonalEdgeStyle;rounded=0;orthogonalLoop=1;jettySize=auto;html=1;" parent="WIyWlLk6GJQsqaUBKTNV-1" source="cDAYfYiGvi2COIqTTSTw-143" target="cDAYfYiGvi2COIqTTSTw-145" edge="1">
          <mxGeometry relative="1" as="geometry" />
        </mxCell>
        <mxCell id="cDAYfYiGvi2COIqTTSTw-143" value="הדפס הודעת ניצחון ל2" style="whiteSpace=wrap;html=1;rounded=1;strokeWidth=2;" parent="WIyWlLk6GJQsqaUBKTNV-1" vertex="1">
          <mxGeometry x="430" y="1920" width="120" height="60" as="geometry" />
        </mxCell>
        <mxCell id="cDAYfYiGvi2COIqTTSTw-145" value="סוף" style="ellipse;whiteSpace=wrap;html=1;rounded=1;strokeWidth=2;fillColor=#a20025;fontColor=#ffffff;strokeColor=#6F0000;" parent="WIyWlLk6GJQsqaUBKTNV-1" vertex="1">
          <mxGeometry x="420" y="2020" width="140" height="80" as="geometry" />
        </mxCell>
        <mxCell id="cDAYfYiGvi2COIqTTSTw-147" value="סוף" style="ellipse;whiteSpace=wrap;html=1;strokeWidth=2;fillColor=#a20025;fontColor=#ffffff;strokeColor=#6F0000;" parent="WIyWlLk6GJQsqaUBKTNV-1" vertex="1">
          <mxGeometry x="420" y="1000" width="120" height="80" as="geometry" />
        </mxCell>
        <mxCell id="cDAYfYiGvi2COIqTTSTw-154" value="כן" style="edgeStyle=orthogonalEdgeStyle;rounded=0;orthogonalLoop=1;jettySize=auto;html=1;entryX=1;entryY=0.5;entryDx=0;entryDy=0;entryPerimeter=0;" parent="WIyWlLk6GJQsqaUBKTNV-1" source="cDAYfYiGvi2COIqTTSTw-151" target="QLwqlWArIf-RWkTs_ufm-1" edge="1">
          <mxGeometry relative="1" as="geometry">
            <mxPoint x="420" y="490" as="targetPoint" />
            <Array as="points">
              <mxPoint x="600" y="490" />
              <mxPoint x="306" y="490" />
            </Array>
          </mxGeometry>
        </mxCell>
        <mxCell id="cDAYfYiGvi2COIqTTSTw-156" style="edgeStyle=orthogonalEdgeStyle;rounded=0;orthogonalLoop=1;jettySize=auto;html=1;exitX=1;exitY=1;exitDx=0;exitDy=0;" parent="WIyWlLk6GJQsqaUBKTNV-1" source="cDAYfYiGvi2COIqTTSTw-151" edge="1">
          <mxGeometry relative="1" as="geometry">
            <mxPoint x="770" y="500" as="targetPoint" />
          </mxGeometry>
        </mxCell>
        <mxCell id="cDAYfYiGvi2COIqTTSTw-162" value="לא" style="edgeLabel;html=1;align=center;verticalAlign=middle;resizable=0;points=[];" parent="cDAYfYiGvi2COIqTTSTw-156" vertex="1" connectable="0">
          <mxGeometry x="0.0494" relative="1" as="geometry">
            <mxPoint as="offset" />
          </mxGeometry>
        </mxCell>
        <mxCell id="cDAYfYiGvi2COIqTTSTw-151" value="החלק יכול לזוז או לתקוף&amp;nbsp;" style="whiteSpace=wrap;html=1;strokeWidth=2;" parent="WIyWlLk6GJQsqaUBKTNV-1" vertex="1">
          <mxGeometry x="540" y="320" width="120" height="60" as="geometry" />
        </mxCell>
        <mxCell id="cDAYfYiGvi2COIqTTSTw-161" style="edgeStyle=orthogonalEdgeStyle;rounded=0;orthogonalLoop=1;jettySize=auto;html=1;exitX=1;exitY=0.5;exitDx=0;exitDy=0;entryX=1;entryY=0.5;entryDx=0;entryDy=0;" parent="WIyWlLk6GJQsqaUBKTNV-1" source="cDAYfYiGvi2COIqTTSTw-159" target="cDAYfYiGvi2COIqTTSTw-151" edge="1">
          <mxGeometry relative="1" as="geometry" />
        </mxCell>
        <mxCell id="cDAYfYiGvi2COIqTTSTw-159" value="בחר שחקן אחר" style="whiteSpace=wrap;html=1;strokeWidth=2;" parent="WIyWlLk6GJQsqaUBKTNV-1" vertex="1">
          <mxGeometry x="660" y="510" width="120" height="60" as="geometry" />
        </mxCell>
        <mxCell id="cDAYfYiGvi2COIqTTSTw-163" value="" style="edgeStyle=orthogonalEdgeStyle;rounded=0;orthogonalLoop=1;jettySize=auto;html=1;exitX=0.75;exitY=1;exitDx=0;exitDy=0;" parent="WIyWlLk6GJQsqaUBKTNV-1" source="cDAYfYiGvi2COIqTTSTw-84" target="cDAYfYiGvi2COIqTTSTw-88" edge="1">
          <mxGeometry relative="1" as="geometry">
            <mxPoint x="360" y="850" as="targetPoint" />
            <mxPoint x="320" y="660" as="sourcePoint" />
          </mxGeometry>
        </mxCell>
        <mxCell id="cDAYfYiGvi2COIqTTSTw-88" value="האם שחקן 1 ניצח?" style="whiteSpace=wrap;html=1;strokeWidth=2;" parent="WIyWlLk6GJQsqaUBKTNV-1" vertex="1">
          <mxGeometry x="294" y="720" width="120" height="60" as="geometry" />
        </mxCell>
        <mxCell id="QLwqlWArIf-RWkTs_ufm-1" value="האם אכלת?" style="strokeWidth=2;html=1;shape=mxgraph.flowchart.decision;whiteSpace=wrap;" parent="WIyWlLk6GJQsqaUBKTNV-1" vertex="1">
          <mxGeometry x="280" y="450" width="126" height="73" as="geometry" />
        </mxCell>
        <mxCell id="QLwqlWArIf-RWkTs_ufm-2" value="האם אחד &lt;br&gt;השחקנים ניצח?" style="strokeWidth=2;html=1;shape=mxgraph.flowchart.decision;whiteSpace=wrap;" parent="WIyWlLk6GJQsqaUBKTNV-1" vertex="1">
          <mxGeometry x="367" y="1760" width="126" height="70" as="geometry" />
        </mxCell>
        <mxCell id="QLwqlWArIf-RWkTs_ufm-4" value="השחקן אכל או ביצע&lt;br&gt;&amp;nbsp;מהלך רגיל&amp;nbsp;" style="strokeWidth=2;html=1;shape=mxgraph.flowchart.decision;whiteSpace=wrap;" parent="WIyWlLk6GJQsqaUBKTNV-1" vertex="1">
          <mxGeometry x="364" y="1370" width="126" height="70" as="geometry" />
        </mxCell>
      </root>
    </mxGraphModel>
  </diagram>
</mxfile>
